<svg enable-background="new 0 0 676 676" viewBox="0 0 676 676" xmlns="http://www.w3.org/2000/svg"><path d="m676 338c.1 43.4-8.3 86.4-24.5 126.7 0 .1-.1.2-.1.3-10.9 27-25.3 52.4-42.8 75.6-3.4 4.5-6.8 8.9-10.4 13.2-1.3 1.6-2.6 3.2-4 4.7-6.9 8-14.1 15.6-21.6 22.8-1.8 1.7-3.5 3.4-5.3 5-.4.4-.8.8-1.3 1.2-8.8 8-18 15.6-27.7 22.7-6.4 4.8-13.1 9.3-19.9 13.6-1.5 1-3 1.9-4.5 2.8-2.6 1.6-5.3 3.2-7.9 4.7-3.5 2-7 3.9-10.6 5.8-1.4.8-2.9 1.5-4.3 2.2-2.1 1.1-4.2 2.1-6.4 3.2-.4.2-.7.4-1.1.5-1.4.7-2.8 1.3-4.2 2-18.5 8.5-37.7 15.4-57.5 20.4-.1 0-.2 0-.3.1-1.3.3-2.6.7-3.9 1-1 .2-2 .5-2.9.7-.1 0-.2.1-.4.1-2 .5-4 .9-6 1.3-1.1.2-2.3.5-3.4.7-.7.2-1.4.3-2.1.4-.9.2-1.7.3-2.6.5-.5.1-1 .2-1.5.3-1.1.2-2.2.4-3.3.6-1.9.3-3.7.6-5.6.9-1.4.2-2.7.4-4.1.6-1.6.2-3.2.4-4.8.6-.4.1-.9.1-1.3.2-.6.1-1.1.1-1.7.2-1.2.1-2.3.3-3.5.4-.6.1-1.2.1-1.8.2-1.1.1-2.3.2-3.4.3-1.5.1-2.9.3-4.4.4-1.8.1-3.6.3-5.4.4-1.2.1-2.3.1-3.5.2-3 .2-6 .3-9 .3-1.5 0-3 .1-4.5.1s-3 0-4.5 0c-15.2 0-30.4-1-45.5-3-11-1.5-21.9-3.5-32.6-6-.4-.1-.9-.2-1.3-.3-1.1-.2-2.2-.5-3.2-.8-1-.2-1.9-.5-2.8-.7-24.5-6.4-48.2-15.5-70.6-27.2-.1-.1-.2-.1-.3-.2-.6-.3-1.3-.7-1.9-1-1.4-.7-2.8-1.5-4.2-2.3-8-4.4-15.7-9-23.2-14-1.9-1.3-3.9-2.6-5.8-3.9-.6-.4-1.2-.8-1.8-1.3-.6-.4-1.3-.9-1.9-1.3-1.7-1.2-3.3-2.4-4.9-3.5-6.7-5-13.3-10.2-19.6-15.6-22.5-19.3-42.4-41.4-59.2-65.8-5.8-8.5-11.3-17.3-16.4-26.4-28.2-50.3-42.9-107-42.8-164.6 0-186.7 151.3-338 338-338s338 151.3 338 338z" fill="#fff"/><g fill="#05a17d"><path d="m392.3 666.6c1.1-.2 2.2-.5 3.2-.8 1-.2 1.9-.5 2.8-.7 0-2 .1-4.2.2-6.5.6-18.6 2-48.4 5.3-84.4.2-1.9.4-3.9.5-5.8 1.2-12.2 2.5-25 4.2-38.3 0-.4.1-.9.2-1.3 1.3-10.8 2.8-21.8 4.5-33.1 1.2-7.9 2.5-15.9 3.9-23.9.1-.6.2-1.1.3-1.7.4-2.3.8-4.7 1.2-7 1.2-6.5 2.4-13.1 3.7-19.6 4.6-23 10.1-46.2 16.7-68.8 6.7-23.4 14.8-46.3 24.5-68.6 7.5-17.3 16.5-34 26.7-49.8.2-.2.3-.5.5-.7 13.2-19.8 28.2-36.6 45.3-49.2l-3.6-4.9c-16.4 12.1-31.5 28.1-45.2 48.1-.1.1-.1.2-.2.3-10.3 15.3-19.3 31.4-26.9 48.3-10.2 22.5-18.8 45.7-25.7 69.4-6.6 22-12.4 45.9-17.7 71.6-1.8 9-3.6 18.3-5.2 27.8-.3 1.6-.6 3.2-.8 4.9v.1c-.4 2.5-.8 5-1.3 7.5-1 6.4-2 12.7-2.9 19-1.4 9.7-2.7 19.2-3.8 28.5-.4 3.1-.7 6.1-1.1 9.2-.5 4.3-1 8.5-1.4 12.7-.6 5.8-1.2 11.5-1.7 17l-.2 1.5c-.1.9-.2 1.8-.2 2.6-4.1 43.5-5.3 78.9-5.8 96.6z" opacity=".2"/><path d="m469 637.9c.1-.1.2-.1.3-.2 2.1-1.1 4.1-2.2 6.1-3.3.7-8 1.6-16.8 2.8-26 .2-1.9.5-3.8.8-5.8.1-1 .3-2.1.4-3.2 1.2-8.1 2.6-16.5 4.3-24.9 6.8-34.4 18.2-69.5 37-91.2 1-1.2 2-2.3 3.1-3.4 2.7-2.8 5.5-5.3 8.6-7.5l-3.6-4.8c-4.3 3.2-8.3 6.8-11.8 10.8-1.2 1.4-2.5 2.8-3.7 4.3-17.3 21.8-28.2 54.1-34.9 86.1-1.8 8.3-3.2 16.7-4.5 24.8-.3 2.1-.6 4.2-.9 6.3-1.8 13.8-3.1 26.8-4 38z" opacity=".2"/><circle cx="569.7" cy="176" opacity=".2" r="30.1"/><circle cx="560" cy="435" opacity=".2" r="30.1"/></g><path d="m450.3 226.5c6.4 36-7.7 68.6-7.7 68.6s-24.4-25.8-30.8-61.8 7.7-68.6 7.7-68.6 24.4 25.8 30.8 61.8z" opacity=".2"/><path d="m550.3 312c-34.3 12.6-68.8 4.5-68.8 4.5s21.2-28.4 55.5-41 68.8-4.5 68.8-4.5-21.2 28.4-55.5 41z" fill="#05a17d" opacity=".2"/><path d="m556.1 541.3c-24.1 8.8-48.3 3.1-48.3 3.1s14.8-20 38.9-28.8 48.3-3.1 48.3-3.1-14.8 20-38.9 28.8z" fill="#05a17d" opacity=".2"/><path d="m440 536.3 1.2.6c-.1 1.3-.4 2.1-1.2-.6z" fill="#2f2e41"/><path d="m441.6 536.7v.4l-.4-.2c0-.1 0-.3 0-.4.1-1.8 0-3.8.4.2z" fill="#2f2e41"/><circle cx="311.7" cy="324.6" fill="#2f2e41" r="164.2"/><circle cx="325.2" cy="382.7" fill="#d0cde1" r="99.4"/><path d="m552.3 573.3-23.2 5.5-48.2 11.6-6.6 1.6-73.3 17.6-6.2 1.5-177.7 42.6c-12-4.6-23.7-9.9-35.1-15.8-.1-.1-.2-.1-.3-.2-.6-.3-1.3-.7-1.9-1-1.4-.7-2.8-1.5-4.2-2.3-7.9-4.4-15.7-9-23.2-14-1.9-1.3-3.9-2.6-5.8-3.9-.6-.4-1.2-.8-1.8-1.3-.6-.4-1.3-.9-1.9-1.3-1.6-1.2-3.3-2.4-4.9-3.5 17.3-31.4 58.4-52.2 99.5-63.6 31-8.6 37.8-37 37.2-62.2-.2-5.8-.6-11.5-1.5-17.2-1.3-9.1-3.2-18-6-26.7l99.5 3.3 10.3 23.6c-.3 2.6-.4 5.2-.3 7.8.8 19.4 12.8 31.9 27.5 40 1.9 1.1 3.9 2 5.9 2.9 24.2 11 52.7 11.8 52.7 11.8 8.7-1 17.5-.8 26.1.5 2.1.3 4.1.7 6.1 1.2 11.6 2.6 22.5 7.5 32.1 14.4 3.7 2.6 7.2 5.5 10.4 8.6 5.8 5.5 10.8 11.7 14.8 18.5z" fill="#d0cde1"/><path d="m567.2 586.4c-.4.4-.8.8-1.3 1.2-8.8 8-18 15.6-27.7 22.7-6.4 4.8-13.1 9.3-19.9 13.6-1.5 1-3 1.9-4.5 2.8-2.6 1.6-5.3 3.2-7.9 4.7-3.5 2-7 3.9-10.6 5.8-1.4.8-2.9 1.5-4.3 2.2-2.1 1.1-4.2 2.1-6.4 3.2-.4.2-.7.4-1.1.5l-4.2-3.5 49.7-60.7 10-12.2s4 0 13.1 6.7c5.1 3.8 9.8 7.9 14.3 12.3.3.2.5.5.8.7z" fill="#d38691"/><path d="m566.5 585.7c-.1.6-.3 1.2-.6 1.8-8.8 8-18 15.6-27.7 22.7-8.3 3-17 5.1-25.8 6.1 0 0 .8 3.8 1.4 10.3-2.6 1.6-5.3 3.2-7.9 4.7-3.5 2-7 3.9-10.6 5.8-1.4.8-2.9 1.5-4.3 2.2-2.1 1.1-4.2 2.1-6.4 3.2-.4.2-.7.4-1.1.5-1.4.7-2.8 1.3-4.2 2-18.5 8.5-37.7 15.4-57.5 20.4-.1 0-.2 0-.3.1-1.3.3-2.6.7-3.9 1-1 .2-2 .5-2.9.7-.1 0-.2.1-.4.1-2 .5-4 .9-6 1.3-1.1.2-2.3.5-3.4.7-.7.2-1.4.3-2.1.4-.9.2-1.7.3-2.6.5-.5.1-1 .2-1.5.3-1.1.2-2.2.4-3.3.6-1.9.3-3.7.6-5.6.9-1.4.2-2.7.4-4.1.6-1.6.2-3.2.4-4.8.6-.4.1-.9.1-1.3.2-.6.1-1.1.1-1.7.2-1.2.1-2.3.3-3.5.4-.6.1-1.2.1-1.8.2-1.1.1-2.3.2-3.4.3-1.5.1-2.9.3-4.4.4-1.8.1-3.6.3-5.4.4-1.2.1-2.3.1-3.5.2-3 .2-6 .3-9 .3-1.5 0-3 .1-4.5.1s-3 0-4.5 0c-15.2 0-30.4-1-45.5-3-11-1.5-21.9-3.5-32.6-6-.4-.1-.9-.2-1.3-.3-1.1-.2-2.2-.5-3.2-.8-1-.2-1.9-.5-2.8-.7-24.5-6.4-48.2-15.5-70.6-27.2-.1-.1-.2-.1-.3-.2-.6-.3-1.3-.7-1.9-1 54.9-12.8 141.6-33 216.9-50.2 2.1-.5 4.2-1 6.3-1.4 27.8-6.4 53.8-12.3 75.9-17.3 2.3-.5 4.5-1 6.7-1.5 23.7-5.3 42.1-9.4 52-11.4 2.7-.6 5.4-1.1 8.1-1.4z" fill="#d38691"/><g fill="#2f2e41"><circle cx="161.4" cy="205.9" r="48.9"/><circle cx="461.9" cy="191.9" r="48.9"/><path d="m409.5 170.9c0-25 18.8-45.9 43.7-48.6-26.9-2.9-51 16.5-53.9 43.3-2.9 26.9 16.5 51 43.3 53.9 3.5.4 7.1.4 10.6 0-24.9-2.6-43.7-23.6-43.7-48.6z"/><path d="m106.8 245.4c-17.5-17.8-18.7-46-2.8-65.3-21.2 16.7-24.9 47.5-8.2 68.7s47.5 24.9 68.7 8.2c2.8-2.2 5.3-4.7 7.6-7.4-19.7 15.5-47.8 13.7-65.3-4.2z"/><path d="m311.7 247.8c-57.9 0-104.8 27.4-104.8 61.1 0 15.1 9.4 28.9 25 39.6l20.2-14.6-5.5 22.9c2.3 1.1 4.6 2.1 7 3l30.1-35.2v43.2c9.2 1.5 18.6 2.2 28 2.2 57.9 0 104.8-27.4 104.8-61.1s-46.9-61.1-104.8-61.1z"/><path d="m413 191.9s-7.6 34.9 39.9 48.9z"/><path d="m206.9 198.2s17.5 39.1-34.9 56.5z"/></g><ellipse cx="227.4" cy="402.6" fill="#d0cde1" rx="8.3" ry="19.9" transform="matrix(.963 -.2696 .2696 .963 -100.1205 76.2155)"/><ellipse cx="426.3" cy="386" fill="#d0cde1" rx="19.9" ry="8.3" transform="matrix(.0614712 -.9981 .9981 .0614712 14.7661 787.767)"/></svg>