<svg enable-background="new 0 0 676 676" viewBox="0 0 676 676" xmlns="http://www.w3.org/2000/svg"><path d="m676 338c.1 45.8-9.2 91-27.2 133.1l-1.1 2.6c-62.7 142.7-214.8 224.1-368.3 197.2-2-.4-4.1-.7-6.1-1.1-20.9-4.1-41.4-10.1-61.1-18-3.2-1.3-6.4-2.6-9.6-4-2.2-.9-4.3-1.9-6.5-2.9-119.5-55.4-196-175.2-196.1-306.9 0-186.7 151.3-338 338-338s338 151.3 338 338z" fill="#fff"/><g fill="#05a17d"><path d="m279.3 671.9c-2-.4-4.1-.7-6.1-1.1-1.3-38.3-5.8-116.9-21.3-199.3-8.4-45.1-20.2-91.3-36.4-132.6-5.6-14.3-11.9-28.3-19.1-41.8-16.4-31-36.4-57.2-60.6-74.9l3.6-4.9c20.1 14.7 38.2 35.4 54.2 62.1 4.8 8 9.4 16.5 13.9 25.5 4.8 9.7 9.3 20 13.6 30.8 2.8 6.9 5.4 14.1 8 21.5 11.2 32.1 20.6 68.8 28.5 110 1.7 9.1 3.4 18.4 4.9 28 12.1 74 15.7 142.4 16.8 176.7z" opacity=".2"/><path d="m202.6 648.8c-2.2-.9-4.3-1.9-6.5-2.9-2.1-22.7-5.9-50.9-13-77.6-3.1-12-7-23.8-11.8-35.2-8-18.8-18.4-34.7-31.8-44.5l3.6-4.8c14 10.3 24.9 26.5 33.2 45.5 9.4 21.4 15.7 46.3 19.9 70.2 3.2 17.6 5.1 34.7 6.4 49.3z" opacity=".2"/><circle cx="102.3" cy="192" opacity=".2" r="30.1"/><ellipse cx="112" cy="450.9" opacity=".2" rx="30.1" ry="30.1"/></g><path d="m221.7 241.5c-6.4 36 7.7 68.6 7.7 68.6s24.4-25.8 30.8-61.8-7.7-68.6-7.7-68.6-24.4 25.8-30.8 61.8z" opacity=".2"/><path d="m121.7 328c34.3 12.6 68.8 4.5 68.8 4.5s-21.2-28.4-55.5-41-68.8-4.5-68.8-4.5 21.2 28.4 55.5 41z" fill="#05a17d" opacity=".2"/><path d="m115.9 557.3c24.1 8.8 48.3 3.1 48.3 3.1s-14.8-20-38.9-28.8-48.3-3.1-48.3-3.1 14.8 20 38.9 28.8z" fill="#05a17d" opacity=".2"/><circle cx="337.3" cy="281.1" fill="#d0cde1" r="131.8"/><path d="m285.8 382s16.5 78.2 16.5 86.5 78.2 45.3 78.2 45.3l70-12.4 24.7-74.1s-41.2-61.8-41.2-86.5z" fill="#d0cde1"/><path d="m648.8 471.1-1.1 2.6c-62.7 142.7-214.8 224.1-368.3 197.2-2-.4-4.1-.7-6.1-1.1-20.9-4.1-41.4-10.1-61.1-18-3.2-1.3-6.4-2.6-9.6-4-2.2-.9-4.3-1.9-6.5-2.9-19.4-9-37.9-19.8-55.2-32.3l-15.6-45.3 8.8-6.7 18.1-13.8 19.3-14.7 5-3.8 75.6-57.7 5.6-4.3 39.3-30s42.5 69.2 104.3 48.7 60.4-79.6 60.4-79.6z" fill="#4fa0db"/><path d="m223 174.9s41.8-90.6 122-69.7 125.5 52.3 129 83.7-1.7 78.4-1.7 78.4-8.7-64.5-64.5-50.6-142.9 3.5-142.9 3.5l-13.9 125.5s-15.7-22.7-33.1-8.7-50.6-134.2 5.1-162.1z" fill="#2f2e41"/><g fill="#4fa0db"><path d="m212.1 651.8c-3.2-1.3-6.4-2.6-9.6-4-2.2-.9-4.3-1.9-6.5-2.9-32.1-14.9-61.6-34.7-87.6-58.7 9.2-12.5 16.7-18.9 16.7-18.9h61.9l9.3 31.1z"/><path d="m594.7 464.3 53 9.4c-14.2 32.3-33.3 62.2-56.8 88.6z"/></g></svg>